<?xml version="1.0" encoding="utf-8"?>
<COLLADA xmlns="http://www.collada.org/2005/11/COLLADASchema" version="1.4.1" xmlns:xsi="http://www.w3.org/2001/XMLSchema-instance">
  <asset>
    <contributor>
      <author>Blender User</author>
      <authoring_tool>Blender 4.1.1 commit date:2024-04-15, commit time:15:11, hash:e1743a0317bc</authoring_tool>
    </contributor>
    <created>2024-11-05T20:10:28</created>
    <modified>2024-11-05T20:10:28</modified>
    <unit name="meter" meter="1"/>
    <up_axis>Z_UP</up_axis>
  </asset>
  <library_effects>
    <effect id="Material_001-effect">
      <profile_COMMON>
        <newparam sid="tagStandard52h13-1_1__png-surface">
          <surface type="2D">
            <init_from>tagStandard52h13-1_1__png</init_from>
          </surface>
        </newparam>
        <newparam sid="tagStandard52h13-1_1__png-sampler">
          <sampler2D>
            <source>tagStandard52h13-1_1__png-surface</source>
          </sampler2D>
        </newparam>
        <technique sid="common">
          <lambert>
            <emission>
              <color sid="emission">0 0 0 1</color>
            </emission>
            <diffuse>
              <texture texture="tagStandard52h13-1_1__png-sampler" texcoord="UVMap"/>
            </diffuse>
            <index_of_refraction>
              <float sid="ior">1.45</float>
            </index_of_refraction>
          </lambert>
        </technique>
      </profile_COMMON>
    </effect>
  </library_effects>
  <library_images>
    <image id="tagStandard52h13-1_1__png" name="tagStandard52h13-1_1__png">
      <init_from>../materials/textures/tag36h11-1.png</init_from>
    </image>
  </library_images>
  <library_materials>
    <material id="Material_001-material" name="Material.001">
      <instance_effect url="#Material_001-effect"/>
    </material>
  </library_materials>
  <library_geometries>
    <geometry id="Cube_001-mesh" name="Cube.001">
      <mesh>
        <source id="Cube_001-mesh-positions">
          <float_array id="Cube_001-mesh-positions-array" count="24">1 1 1 1 1 -1 1 -1 1 1 -1 -1 -1 1 1 -1 1 -1 -1 -1 1 -1 -1 -1</float_array>
          <technique_common>
            <accessor source="#Cube_001-mesh-positions-array" count="8" stride="3">
              <param name="X" type="float"/>
              <param name="Y" type="float"/>
              <param name="Z" type="float"/>
            </accessor>
          </technique_common>
        </source>
        <source id="Cube_001-mesh-normals">
          <float_array id="Cube_001-mesh-normals-array" count="36">0 0 1 0 -1 0 -1 0 0 0 0 -1 1 0 0 0 1 0 0 0 1 0 -1 0 -1 0 0 0 0 -1 1 0 0 0 1 0</float_array>
          <technique_common>
            <accessor source="#Cube_001-mesh-normals-array" count="12" stride="3">
              <param name="X" type="float"/>
              <param name="Y" type="float"/>
              <param name="Z" type="float"/>
            </accessor>
          </technique_common>
        </source>
        <source id="Cube_001-mesh-map-0">
          <float_array id="Cube_001-mesh-map-0-array" count="72">1.000445 -0.001270055 5.12555e-4 1.000697 8.13832e-4 9.20799e-4 5.12555e-4 1.000697 -0.2997817 1.256477 -0.6698407 1.003384 0.3632205 -0.5023369 -0.3065556 -0.2476857 -0.3065556 -0.4976857 -0.6702136 0.003488004 -0.9155734 1.001961 -0.9223473 -0.002201676 8.13832e-4 9.20799e-4 -0.6698407 1.003384 -0.6702136 0.003488004 0.3665901 -0.2512701 -0.6702136 0.003488004 -0.3065556 -0.2476857 1.000445 -0.001270055 0.999334 0.9995682 5.12555e-4 1.000697 5.12555e-4 1.000697 0.3699945 1.251826 -0.2997817 1.256477 0.3632205 -0.5023369 0.3665901 -0.2512701 -0.3065556 -0.2476857 -0.6702136 0.003488004 -0.6698407 1.003384 -0.9155734 1.001961 8.13832e-4 9.20799e-4 5.12555e-4 1.000697 -0.6698407 1.003384 0.3665901 -0.2512701 8.13832e-4 9.20799e-4 -0.6702136 0.003488004</float_array>
          <technique_common>
            <accessor source="#Cube_001-mesh-map-0-array" count="36" stride="2">
              <param name="S" type="float"/>
              <param name="T" type="float"/>
            </accessor>
          </technique_common>
        </source>
        <vertices id="Cube_001-mesh-vertices">
          <input semantic="POSITION" source="#Cube_001-mesh-positions"/>
        </vertices>
        <triangles material="Material_001-material" count="12">
          <input semantic="VERTEX" source="#Cube_001-mesh-vertices" offset="0"/>
          <input semantic="NORMAL" source="#Cube_001-mesh-normals" offset="1"/>
          <input semantic="TEXCOORD" source="#Cube_001-mesh-map-0" offset="2" set="0"/>
          <p>4 0 0 2 0 1 0 0 2 2 1 3 7 1 4 3 1 5 6 2 6 5 2 7 7 2 8 1 3 9 7 3 10 5 3 11 0 4 12 3 4 13 1 4 14 4 5 15 1 5 16 5 5 17 4 6 18 6 6 19 2 6 20 2 7 21 6 7 22 7 7 23 6 8 24 4 8 25 5 8 26 1 9 27 3 9 28 7 9 29 0 10 30 2 10 31 3 10 32 4 11 33 0 11 34 1 11 35</p>
        </triangles>
      </mesh>
    </geometry>
  </library_geometries>
  <library_visual_scenes>
    <visual_scene id="Scene" name="Scene">
      <node id="Tag1" name="Tag1" type="NODE">
        <matrix sid="transform">1 0 0 0 0 1 0 0 0 0 0.1 0 0 0 0 1</matrix>
        <instance_geometry url="#Cube_001-mesh" name="Tag1">
          <bind_material>
            <technique_common>
              <instance_material symbol="Material_001-material" target="#Material_001-material">
                <bind_vertex_input semantic="UVMap" input_semantic="TEXCOORD" input_set="0"/>
              </instance_material>
            </technique_common>
          </bind_material>
        </instance_geometry>
      </node>
    </visual_scene>
  </library_visual_scenes>
  <scene>
    <instance_visual_scene url="#Scene"/>
  </scene>
</COLLADA>