<?xml version="1.0" encoding="UTF-8" standalone="no" ?>
<COLLADA version="1.4.1" xmlns="http://www.collada.org/2005/11/COLLADASchema">

  <asset>
    <contributor>
      <authoring_tool>ONSHAPE BY PTC INC, 1.206</authoring_tool>
    </contributor>
    <created>2025-11-05T03:29:11</created>
    <modified>2025-11-05T03:29:11</modified>
    <unit meter="1" name="meters"/>
    <up_axis>Z_UP</up_axis>
  </asset>

  <library_materials>
    <material id="ID9" name="ID9">
      <instance_effect url="#ID9-fx"/>
    </material>
    <material id="ID10" name="ID10">
      <instance_effect url="#ID10-fx"/>
    </material>
  </library_materials>

  <library_effects>
    <effect id="ID9-fx" name="ID9">
      <profile_COMMON>
        <technique sid="COMMON">
          <lambert>
            <diffuse>
              <color sid="diffuse">0 0 0 1</color>
            </diffuse>
            <transparent opaque="A_ONE">
              <color sid="transparent">1 1 1 1</color>
            </transparent>
            <transparency>
              <float sid="transparency">1</float>
            </transparency>
          </lambert>
        </technique>
        <extra>
          <technique profile="OTHER">
            <double_sided>1</double_sided>
          </technique>
        </extra>
      </profile_COMMON>
    </effect>
    <effect id="ID10-fx" name="ID10">
      <profile_COMMON>
        <technique sid="COMMON">
          <lambert>
            <diffuse>
              <color sid="diffuse">1 1 1 1</color>
            </diffuse>
            <transparent opaque="A_ONE">
              <color sid="transparent">1 1 1 1</color>
            </transparent>
            <transparency>
              <float sid="transparency">1</float>
            </transparency>
          </lambert>
        </technique>
        <extra>
          <technique profile="OTHER">
            <double_sided>1</double_sided>
          </technique>
        </extra>
      </profile_COMMON>
    </effect>
  </library_effects>

  <library_geometries>
    <geometry id="ID3">
      <mesh>
        <source id="ID4">
          <float_array count="1176" id="ID5">-0.056 1.40443e-17 0 -0.056 -0.05 0 -0.04 -0.04 0 -0.053 0.05 0 -0.04 0.04 0 0.04 0.04 0 0.056 1.38778e-17 0 0.053 1.38778e-17 0 0.04 -0.04 0 -0.053 1.38778e-17 0 0.056 -0.05 0 0.053 0.05 0 -2.08167e-17 -0.03 0.0005 -2.08167e-17 -0.02 0.0005 -2.08167e-17 -0.02 0 -2.08167e-17 -0.03 0 -0.01 2.38143e-17 0 0 -0.0001 0 -2.04281e-17 2.42861e-17 0 -2.08167e-17 -0.03 0 -2.08167e-17 -0.02 0 -0.0099 -0.02 0 0.03 0.03 0 0.02 0.03 0 0.02 0.02 0 -0.02 -0.01 0 -0.02 -0.02 0 -0.0099 -0.01 0 -2.08167e-17 -0.01 0 0.0201 -0.0001 0 0.0001 0.02 0 0.03 -0.01 0 0.0201 -0.01 0 0.0001 0.03 0 -2.08167e-17 0.02 0 -0.03 0.03 0 -0.03 0.02 0 -0.01 -0.01 0 -0.03 0.01 0 -0.03 -0.02 0 -0.02 0.01 0 -0.02 -0.03 0 0.0001 0.03 0 0.0001 0.03 0.0005 -0.03 0.03 0.0005 -0.03 0.03 0 0.01 -0.01 0 0.01 -0.02 0 0.02 -0.02 0 0.02 -0.01 0 0.053 0.05 0 0.056 0.05 0 0.056 0.05 -0.002 -0.053 0.05 0 -0.0559795 0.05 0.000246892 -0.056 0.05 0 0.0541318 0.05 0.0014541 0.0543761 0.05 0.00149488 0.0548682 0.05 0.0014541 0.0546239 0.05 0.00149488 -0.0531808 0.05 0.000713921 -0.0530813 0.05 0.000487049 -0.0558192 0.05 0.000713921 0.0551025 0.05 0.00137366 0.0538975 0.05 0.00137366 -0.0530205 0.05 0.000246892 -0.0559187 0.05 0.000487049 -0.0556837 0.05 0.000921319 0.0553204 0.05 0.00125575 0.0536796 0.05 0.00125575 -0.0534841 0.05 0.00110359 -0.0533163 0.05 0.000921319 -0.0555159 0.05 0.00110359 0.0534841 0.05 0.00110359 0.0555159 0.05 0.00110359 -0.0553204 0.05 0.00125575 -0.0536796 0.05 0.00125575 0.0556837 0.05 0.000921319 0.0533163 0.05 0.000921319 0.0558192 0.05 0.000713921 0.0559187 0.05 0.000487049 0.0531808 0.05 0.000713921 0.0559795 0.05 0.000246892 0.0530813 0.05 0.000487049 0.0530205 0.05 0.000246892 -0.056 0.05 -0.002 -0.0551025 0.05 0.00137366 -0.0541318 0.05 0.0014541 -0.0538975 0.05 0.00137366 -0.0548682 0.05 0.0014541 -0.0546239 0.05 0.00149488 -0.0543761 0.05 0.00149488 0.056 -0.05 -0.002 -0.056 -0.05 0 -0.056 -0.05 -0.002 0.056 -0.05 0 -0.056 0.05 -0.002 0.056 0.05 -0.002 0.056 -0.05 -0.002 -0.056 -0.05 -0.002 -0.04 0.04 0 -0.04 -0.04 0.0005 -0.04 0.04 0.0005 -0.04 -0.04 0 0.04 -0.04 0 0.04 -0.04 0.0005 -0.04 -0.04 0.0005 -0.04 -0.04 0 0.04 0.04 0 0.04 0.04 0.0005 0.04 -0.04 0.0005 0.04 -0.04 0 -0.03 0.03 0 -0.03 0.03 0.0005 -0.03 0.02 0.0005 -0.03 0.02 0 0.02 0.02 0 0.02 0.02 0.0005 0.0001 0.02 0.0005 0.0001 0.02 0 0.02 0.03 0 0.02 0.03 0.0005 0.02 0.02 0.0005 0.02 0.02 0 0.03 0.03 0 0.03 0.03 0.0005 0.02 0.03 0.0005 0.02 0.03 0 0.03 0.03 0 0.03 -0.01 0.0005 0.03 0.03 0.0005 0.03 -0.01 0 0.03 -0.01 0 0.0201 -0.01 0.0005 0.03 -0.01 0.0005 0.0201 -0.01 0 0.02 -0.01 0 0.02 -0.02 0.0005 0.02 -0.01 0.0005 0.02 -0.02 0 0.02 -0.02 0 0.01 -0.02 0.0005 0.02 -0.02 0.0005 0.01 -0.02 0 0.01 -0.01 0 0.01 -0.01 0.0005 0.01 -0.02 0.0005 0.01 -0.02 0 0 -0.0001 0 -2.08167e-17 -0.01 0.0005 -2.08167e-17 -0.0001 0.0005 -2.08167e-17 -0.01 0 -2.08167e-17 -0.03 0 -0.02 -0.03 0.0005 -2.08167e-17 -0.03 0.0005 -0.02 -0.03 0 -0.02 -0.02 0 -0.02 -0.02 0.0005 -0.02 -0.03 0.0005 -0.02 -0.03 0 -0.02 -0.02 0 -0.03 -0.02 0.0005 -0.02 -0.02 0.0005 -0.03 -0.02 0 -0.03 0.01 0 -0.03 0.01 0.0005 -0.03 -0.02 0.0005 -0.03 -0.02 0 -0.02 0.01 0 -0.02 0.01 0.0005 -0.03 0.01 0.0005 -0.03 0.01 0 -0.02 0.01 0 -0.02 -0.01 0.0005 -0.02 0.01 0.0005 -0.02 -0.01 0 -0.01 -0.01 0 -0.01 -0.01 0.0005 -0.02 -0.01 0.0005 -0.02 -0.01 0 -0.01 2.38143e-17 0 -0.01 2.39808e-17 0.0005 -0.01 -0.01 0.0005 -0.01 -0.01 0 -2.04281e-17 2.42861e-17 0 -2.04281e-17 2.42861e-17 0.0005 -0.01 2.39808e-17 0.0005 -0.01 2.38143e-17 0 -2.08167e-17 0.02 0 -2.08167e-17 0.02 0.0005 -2.04281e-17 2.42861e-17 0.0005 -2.04281e-17 2.42861e-17 0 -2.08167e-17 0.02 0 -0.03 0.02 0.0005 -2.08167e-17 0.02 0.0005 -0.03 0.02 0 0.04 0.04 0 -0.04 0.04 0.0005 0.04 0.04 0.0005 -0.04 0.04 0 0.03 -0.01 0.0005 0.04 -0.04 0.0005 0.04 0.04 0.0005 0.02 -0.02 0.0005 0.01 -0.01 0.0005 0.0201 -0.0001 0.0005 -2.08167e-17 -0.0001 0.0005 0.02 -0.01 0.0005 0.0201 -0.01 0.0005 0.01 -0.02 0.0005 -2.08167e-17 -0.03 0.0005 -2.08167e-17 -0.01 0.0005 -2.08167e-17 -0.02 0.0005 0.03 0.03 0.0005 -0.02 0.01 0.0005 -0.01 2.39808e-17 0.0005 -2.08167e-17 0.02 0.0005 -0.02 -0.02 0.0005 -0.03 -0.02 0.0005 -0.02 -0.03 0.0005 -0.0099 -0.01 0.0005 -0.0099 -0.02 0.0005 -0.04 -0.04 0.0005 -0.03 0.01 0.0005 -0.04 0.04 0.0005 -0.03 0.02 0.0005 -0.02 -0.01 0.0005 -0.01 -0.01 0.0005 -2.04281e-17 2.42861e-17 0.0005 0.0001 0.03 0.0005 -0.03 0.03 0.0005 0.0001 0.02 0.0005 0.02 0.02 0.0005 0.02 0.03 0.0005 0.0001 0.02 0.0005 0.0001 0.03 0.0005 0.0001 0.03 0 0.0001 0.02 0 0.02 -0.01 0 0.01 -0.01 0.0005 0.01 -0.01 0 0.02 -0.01 0.0005 0.0201 -0.0001 0 0.0201 -0.01 0.0005 0.0201 -0.01 0 0.0201 -0.0001 0.0005 0.0201 -0.0001 0 -2.08167e-17 -0.0001 0.0005 0.0201 -0.0001 0.0005 0 -0.0001 0 -2.08167e-17 -0.01 0.0005 -2.08167e-17 -0.01 0 -0.0099 -0.01 0 -0.0099 -0.01 0.0005 -0.0099 -0.02 0.0005 -0.0099 -0.01 0.0005 -0.0099 -0.01 0 -0.0099 -0.02 0 -2.08167e-17 -0.02 0.0005 -0.0099 -0.02 0.0005 -0.0099 -0.02 0 -2.08167e-17 -0.02 0 -0.056 1.40443e-17 0 -0.056 0.05 0 -0.056 0.05 -0.002 -0.056 -0.05 -0.002 -0.056 -0.05 0 0.056 -0.05 -0.002 0.056 1.38778e-17 0 0.056 -0.05 0 0.056 0.05 -0.002 0.056 0.05 0 -0.0546239 0.05 0.00149488 -0.0546239 1.38778e-17 0.00149488 -0.0543761 1.38778e-17 0.00149488 -0.0548682 0.05 0.0014541 -0.0548682 1.38778e-17 0.0014541 -0.0551025 1.38778e-17 0.00137366 -0.0551025 0.05 0.00137366 -0.0553204 0.05 0.00125575 -0.0553204 1.38778e-17 0.00125575 -0.0555159 0.05 0.00110359 -0.0555159 1.38778e-17 0.00110359 -0.0556837 1.38778e-17 0.000921319 -0.0556837 0.05 0.000921319 -0.0558192 0.05 0.000713921 -0.0558192 1.38778e-17 0.000713921 -0.0559187 0.05 0.000487049 -0.0559187 1.38778e-17 0.000487049 -0.0559795 1.38778e-17 0.000246892 -0.0559795 0.05 0.000246892 -0.056 0.05 0 -0.056 1.40443e-17 0 -0.0543761 0.05 0.00149488 -0.0541318 1.38778e-17 0.0014541 -0.0541318 0.05 0.0014541 -0.0538975 1.38778e-17 0.00137366 -0.0538975 0.05 0.00137366 -0.0536796 0.05 0.00125575 -0.0536796 1.38778e-17 0.00125575 -0.0534841 1.38778e-17 0.00110359 -0.0534841 0.05 0.00110359 -0.0533163 1.38778e-17 0.000921319 -0.0533163 0.05 0.000921319 -0.0531808 0.05 0.000713921 -0.0531808 1.38778e-17 0.000713921 -0.0530813 1.38778e-17 0.000487049 -0.0530813 0.05 0.000487049 -0.0530205 1.38778e-17 0.000246892 -0.0530205 0.05 0.000246892 -0.053 1.38778e-17 0 -0.053 0.05 0 -0.0530813 1.38778e-17 0.000487049 -0.0559187 1.38778e-17 0.000487049 -0.0559795 1.38778e-17 0.000246892 -0.0541318 1.38778e-17 0.0014541 -0.0543761 1.38778e-17 0.00149488 -0.0548682 1.38778e-17 0.0014541 -0.0546239 1.38778e-17 0.00149488 -0.0551025 1.38778e-17 0.00137366 -0.0538975 1.38778e-17 0.00137366 -0.0553204 1.38778e-17 0.00125575 -0.0536796 1.38778e-17 0.00125575 -0.0534841 1.38778e-17 0.00110359 -0.0555159 1.38778e-17 0.00110359 -0.0556837 1.38778e-17 0.000921319 -0.0533163 1.38778e-17 0.000921319 -0.0558192 1.38778e-17 0.000713921 -0.0531808 1.38778e-17 0.000713921 -0.0530205 1.38778e-17 0.000246892 -0.056 1.40443e-17 0 -0.053 1.38778e-17 0 0.0543761 0.05 0.00149488 0.0543761 1.38778e-17 0.00149488 0.0546239 1.38778e-17 0.00149488 0.0541318 0.05 0.0014541 0.0541318 1.38778e-17 0.0014541 0.0538975 1.38778e-17 0.00137366 0.0538975 0.05 0.00137366 0.0536796 0.05 0.00125575 0.0536796 1.38778e-17 0.00125575 0.0534841 0.05 0.00110359 0.0534841 1.38778e-17 0.00110359 0.0533163 1.38778e-17 0.000921319 0.0533163 0.05 0.000921319 0.0531808 0.05 0.000713921 0.0531808 1.38778e-17 0.000713921 0.0530813 0.05 0.000487049 0.0530813 1.38778e-17 0.000487049 0.0530205 1.38778e-17 0.000246892 0.0530205 0.05 0.000246892 0.053 0.05 0 0.053 1.38778e-17 0 0.0546239 0.05 0.00149488 0.0548682 1.38778e-17 0.0014541 0.0548682 0.05 0.0014541 0.0551025 1.38778e-17 0.00137366 0.0551025 0.05 0.00137366 0.0553204 0.05 0.00125575 0.0553204 1.38778e-17 0.00125575 0.0555159 1.38778e-17 0.00110359 0.0555159 0.05 0.00110359 0.0556837 1.38778e-17 0.000921319 0.0556837 0.05 0.000921319 0.0558192 0.05 0.000713921 0.0558192 1.38778e-17 0.000713921 0.0559187 1.38778e-17 0.000487049 0.0559187 0.05 0.000487049 0.0559795 1.38778e-17 0.000246892 0.0559795 0.05 0.000246892 0.056 1.38778e-17 0 0.056 0.05 0 0.0548682 1.38778e-17 0.0014541 0.0546239 1.38778e-17 0.00149488 0.0541318 1.38778e-17 0.0014541 0.0559187 1.38778e-17 0.000487049 0.0558192 1.38778e-17 0.000713921 0.0530813 1.38778e-17 0.000487049 0.053 1.38778e-17 0 0.0559795 1.38778e-17 0.000246892 0.0530205 1.38778e-17 0.000246892 0.0534841 1.38778e-17 0.00110359 0.0555159 1.38778e-17 0.00110359 0.0553204 1.38778e-17 0.00125575 0.0533163 1.38778e-17 0.000921319 0.0531808 1.38778e-17 0.000713921 0.0556837 1.38778e-17 0.000921319 0.0543761 1.38778e-17 0.00149488 0.0551025 1.38778e-17 0.00137366 0.0538975 1.38778e-17 0.00137366 0.0536796 1.38778e-17 0.00125575 0.056 1.38778e-17 0</float_array>
          <technique_common>
            <accessor count="392" source="#ID5" stride="3">
              <param name="X" type="float"/>
              <param name="Y" type="float"/>
              <param name="Z" type="float"/>
            </accessor>
          </technique_common>
        </source>
        <source id="ID6">
          <float_array count="1176" id="ID7">0 0 1 0 0 1 0 0 1 0 0 1 0 0 1 0 0 1 0 0 1 0 0 1 0 0 1 0 0 1 0 0 1 0 0 1 -1 0 0 -1 0 0 -1 0 0 -1 0 0 0 0 1 0 0 1 0 0 1 0 0 1 0 0 1 0 0 1 0 0 1 0 0 1 0 0 1 0 0 1 0 0 1 0 0 1 0 0 1 0 0 1 0 0 1 0 0 1 0 0 1 0 0 1 0 0 1 0 0 1 0 0 1 0 0 1 0 0 1 0 0 1 0 0 1 0 0 1 -0 -1 -0 -0 -1 -0 -0 -1 -0 -0 -1 -0 0 0 1 0 0 1 0 0 1 0 0 1 0 1 0 0 1 0 0 1 0 0 1 0 0 1 0 0 1 0 0 1 0 0 1 0 0 1 0 0 1 0 0 1 0 0 1 0 0 1 0 0 1 0 0 1 0 0 1 0 0 1 0 0 1 0 0 1 0 0 1 0 0 1 0 0 1 0 0 1 0 0 1 0 0 1 0 0 1 0 0 1 0 0 1 0 0 1 0 0 1 0 0 1 0 0 1 0 0 1 0 0 1 0 0 1 0 0 1 0 0 1 0 0 1 0 0 1 0 0 1 0 0 1 0 0 1 0 -0 -1 -0 -0 -1 -0 -0 -1 -0 -0 -1 -0 -0 -0 -1 -0 -0 -1 -0 -0 -1 -0 -0 -1 -1 0 0 -1 0 0 -1 0 0 -1 0 0 -0 -1 -0 -0 -1 -0 -0 -1 -0 -0 -1 -0 1 0 0 1 0 0 1 0 0 1 0 0 1 0 0 1 0 0 1 0 0 1 0 0 -0 -1 -0 -0 -1 -0 -0 -1 -0 -0 -1 -0 1 0 0 1 0 0 1 0 0 1 0 0 -0 -1 -0 -0 -1 -0 -0 -1 -0 -0 -1 -0 -1 0 0 -1 0 0 -1 0 0 -1 0 0 0 1 0 0 1 0 0 1 0 0 1 0 -1 0 0 -1 0 0 -1 0 0 -1 0 0 0 1 0 0 1 0 0 1 0 0 1 0 1 0 0 1 0 0 1 0 0 1 0 0 -1 0 0 -1 0 0 -1 0 0 -1 0 0 0 1 0 0 1 0 0 1 0 0 1 0 1 0 0 1 0 0 1 0 0 1 0 0 0 1 0 0 1 0 0 1 0 0 1 0 1 0 0 1 0 0 1 0 0 1 0 0 -0 -1 -0 -0 -1 -0 -0 -1 -0 -0 -1 -0 -1 0 0 -1 0 0 -1 0 0 -1 0 0 -0 -1 -0 -0 -1 -0 -0 -1 -0 -0 -1 -0 1 0 0 1 0 0 1 0 0 1 0 0 -0 -1 -0 -0 -1 -0 -0 -1 -0 -0 -1 -0 1 0 0 1 0 0 1 0 0 1 0 0 0 1 0 0 1 0 0 1 0 0 1 0 0 1 0 0 1 0 0 1 0 0 1 0 0 0 1 0 0 1 0 0 1 0 0 1 0 0 1 0 0 1 0 0 1 0 0 1 0 0 1 0 0 1 0 0 1 0 0 1 0 0 1 0 0 1 0 0 1 0 0 1 0 0 1 0 0 1 0 0 1 0 0 1 0 0 1 0 0 1 0 0 1 0 0 1 0 0 1 0 0 1 0 0 1 0 0 1 0 0 1 0 0 1 0 0 1 0 0 1 0 0 1 0 0 1 -1 -3.06287e-16 -0 -1 -3.06287e-16 -0 -1 -3.06287e-16 -0 -1 -3.06287e-16 -0 -0 -1 -0 -0 -1 -0 -0 -1 -0 -0 -1 -0 1 0 0 1 0 0 1 0 0 1 0 0 0 1 0 0 1 0 0 1 0 0 1 0 0 1 0 0 1 0 0 1 0 0 1 0 -1 -3.46945e-16 -0 -1 -3.46945e-16 -0 -1 -3.46945e-16 -0 -1 -3.46945e-16 -0 0 -1 0 0 -1 0 0 -1 0 0 -1 0 -1 -0 -0 -1 -0 -0 -1 -0 -0 -1 -0 -0 -1 -0 -0 1 0 0 1 0 0 1 0 0 1 0 0 1 0 0 -0.0825793 0 0.996584 -0.0825793 0 0.996584 0.0825795 0 0.996584 -0.245486 0 0.9694 -0.245486 0 0.9694 -0.401695 0 0.915773 -0.401695 0 0.915773 -0.546948 0 0.837166 -0.546948 0 0.837166 -0.677282 0 0.735724 -0.677282 0 0.735724 -0.789141 0 0.614213 -0.789141 0 0.614213 -0.879474 0 0.475947 -0.879474 0 0.475947 -0.945817 0 0.3247 -0.945817 0 0.3247 -0.986361 0 0.164595 -0.986361 0 0.164595 -1 0 4.37114e-08 -1 0 4.37114e-08 0.0825795 0 0.996584 0.245486 0 0.9694 0.245486 0 0.9694 0.401695 0 0.915773 0.401695 0 0.915773 0.546948 0 0.837166 0.546948 0 0.837166 0.677281 0 0.735724 0.677281 0 0.735724 0.789141 0 0.614213 0.789141 0 0.614213 0.879474 0 0.475947 0.879474 0 0.475947 0.945817 0 0.3247 0.945817 0 0.3247 0.986361 0 0.164595 0.986361 0 0.164595 1 0 -1.19249e-08 1 0 -1.19249e-08 -0 -1 -0 -0 -1 -0 -0 -1 -0 -0 -1 -0 -0 -1 -0 -0 -1 -0 -0 -1 -0 -0 -1 -0 -0 -1 -0 -0 -1 -0 -0 -1 -0 -0 -1 -0 -0 -1 -0 -0 -1 -0 -0 -1 -0 -0 -1 -0 -0 -1 -0 -0 -1 -0 -0 -1 -0 -0 -1 -0 -0.0825793 0 0.996584 -0.0825793 0 0.996584 0.0825795 0 0.996584 -0.245486 0 0.9694 -0.245486 0 0.9694 -0.401695 0 0.915773 -0.401695 0 0.915773 -0.546948 0 0.837166 -0.546948 0 0.837166 -0.677282 0 0.735724 -0.677282 0 0.735724 -0.789141 0 0.614213 -0.789141 0 0.614213 -0.879474 0 0.475947 -0.879474 0 0.475947 -0.945817 0 0.3247 -0.945817 0 0.3247 -0.986361 0 0.164595 -0.986361 0 0.164595 -1 0 4.37114e-08 -1 0 4.37114e-08 0.0825795 0 0.996584 0.245486 0 0.9694 0.245486 0 0.9694 0.401695 0 0.915773 0.401695 0 0.915773 0.546948 0 0.837166 0.546948 0 0.837166 0.677281 0 0.735724 0.677281 0 0.735724 0.789141 0 0.614213 0.789141 0 0.614213 0.879474 0 0.475947 0.879474 0 0.475947 0.945817 0 0.3247 0.945817 0 0.3247 0.986361 0 0.164595 0.986361 0 0.164595 1 0 -1.19249e-08 1 0 -1.19249e-08 -0 -1 -0 -0 -1 -0 -0 -1 -0 -0 -1 -0 -0 -1 -0 -0 -1 -0 -0 -1 -0 -0 -1 -0 -0 -1 -0 -0 -1 -0 -0 -1 -0 -0 -1 -0 -0 -1 -0 -0 -1 -0 -0 -1 -0 -0 -1 -0 -0 -1 -0 -0 -1 -0 -0 -1 -0 -0 -1 -0</float_array>
          <technique_common>
            <accessor count="392" source="#ID7" stride="3">
              <param name="X" type="float"/>
              <param name="Y" type="float"/>
              <param name="Z" type="float"/>
            </accessor>
          </technique_common>
        </source>
        <vertices id="ID8">
          <input semantic="POSITION" source="#ID4"/>
          <input semantic="NORMAL" source="#ID6"/>
        </vertices>
        <triangles count="36" material="ID9">
          <input offset="0" semantic="VERTEX" source="#ID8"/>
          <p>200 201 202 201 200 203 204 205 206 205 207 208 203 209 210 211 204 206 212 210 209 200 202 213 203 200 208 207 203 208 214 215 216 204 207 205 217 218 219 204 211 209 220 221 212 211 212 209 201 203 210 220 212 211 222 201 210 222 210 219 222 218 223 219 218 222 222 223 224 225 214 216 226 227 215 226 215 214 228 216 215 202 224 229 224 223 225 223 214 225 224 225 230 230 229 224 231 232 229 202 229 233 229 232 233 233 213 202</p>
        </triangles>
        <triangles count="268" material="ID10">
          <input offset="0" semantic="VERTEX" source="#ID8"/>
          <p>0 1 2 3 4 5 6 7 8 3 9 4 2 10 8 0 2 9 6 8 10 10 2 1 8 7 5 2 4 9 3 5 11 7 11 5 12 13 14 12 14 15 16 17 18 19 20 21 22 23 24 25 26 21 27 28 17 29 30 18 31 22 24 29 32 31 30 33 34 29 24 30 24 29 31 35 34 33 35 36 34 29 18 17 30 34 18 17 16 27 21 27 37 16 37 27 25 38 39 37 25 21 40 38 25 26 41 21 25 39 26 41 19 21 42 43 44 44 45 42 46 47 48 46 48 49 50 51 52 53 50 52 54 53 55 56 57 58 57 59 58 60 61 62 63 64 56 56 58 63 65 66 61 67 60 62 64 68 69 68 64 63 70 71 72 73 69 74 68 74 69 71 67 72 70 75 76 73 74 77 78 77 79 77 78 73 80 81 79 78 79 81 80 82 83 83 81 80 84 82 51 82 84 83 84 51 50 53 52 85 86 76 75 53 85 55 87 88 89 76 86 88 89 90 87 91 87 90 89 88 86 70 72 75 66 62 61 71 60 67 53 54 65 54 66 65 92 93 94 92 95 93 96 97 98 98 99 96 100 101 102 101 100 103 104 105 106 106 107 104 108 109 110 110 111 108 112 113 114 114 115 112 116 117 118 118 119 116 120 121 122 122 123 120 124 125 126 126 127 124 128 129 130 129 128 131 132 133 134 133 132 135 136 137 138 137 136 139 140 141 142 141 140 143 144 145 146 146 147 144 148 149 150 149 148 151 152 153 154 153 152 155 156 157 158 158 159 156 160 161 162 161 160 163 164 165 166 166 167 164 168 169 170 170 171 168 172 173 174 173 172 175 176 177 178 178 179 176 180 181 182 182 183 180 184 185 186 186 187 184 188 189 190 190 191 188 192 193 194 193 192 195 196 197 198 197 196 199 234 235 236 236 237 234 238 239 240 238 241 239 242 243 244 242 245 243 246 247 248 247 246 249 250 251 252 252 253 250 254 255 256 256 257 254 258 259 260 258 260 261 262 263 264 265 266 262 262 264 265 267 268 269 270 271 268 270 268 267 272 273 274 273 275 276 275 273 272 277 276 278 275 278 276 279 280 277 277 278 279 280 281 282 281 280 279 283 282 284 281 284 282 285 286 283 283 284 285 286 287 288 287 286 285 289 288 290 287 290 288 291 292 289 289 290 291 272 274 293 294 295 293 293 274 294 295 296 297 296 295 294 298 297 299 296 299 297 300 301 298 298 299 300 301 302 303 302 301 300 304 303 305 302 305 303 306 307 304 304 305 306 307 308 309 308 307 306 308 310 309 309 310 311 312 313 314 315 316 317 317 316 318 315 319 320 319 315 317 321 322 320 320 319 321 323 322 324 321 324 322 323 325 326 325 323 324 326 325 327 328 327 313 327 328 326 329 312 314 312 328 313 330 331 329 329 314 330 332 333 334 333 335 336 335 333 332 337 336 338 335 338 336 339 340 337 337 338 339 340 341 342 341 340 339 343 342 344 341 344 342 345 346 343 343 344 345 346 347 348 347 346 345 349 348 350 347 350 348 351 352 349 349 350 351 332 334 353 354 355 353 353 334 354 355 356 357 356 355 354 358 357 359 356 359 357 360 361 358 358 359 360 361 362 363 362 361 360 364 363 365 362 365 363 366 367 364 364 365 366 367 368 369 368 367 366 368 370 369 369 370 371 372 373 374 375 376 377 378 379 380 381 382 383 384 385 386 387 374 373 388 389 390 389 388 372 389 372 374 381 383 390 383 388 390 382 381 384 376 386 385 386 382 384 375 377 380 376 385 377 378 391 379 375 380 379</p>
        </triangles>
      </mesh>
    </geometry>
  </library_geometries>

  <library_visual_scenes>
    <visual_scene id="ID1">
      <node id="ID2">
        <instance_geometry url="#ID3">
          <bind_material>
            <technique_common>
              <instance_material symbol="ID9" target="#ID9"/>
              <instance_material symbol="ID10" target="#ID10"/>
            </technique_common>
          </bind_material>
        </instance_geometry>
      </node>
    </visual_scene>
  </library_visual_scenes>

  <scene>
    <instance_visual_scene url="#ID1"/>
  </scene>

  <library_nodes/>

</COLLADA>
