<?xml version="1.0" encoding="UTF-8" standalone="no" ?>
<COLLADA version="1.4.1" xmlns="http://www.collada.org/2005/11/COLLADASchema">

  <asset>
    <contributor>
      <authoring_tool>ONSHAPE BY PTC INC, 1.206</authoring_tool>
    </contributor>
    <created>2025-11-05T03:28:55</created>
    <modified>2025-11-05T03:28:55</modified>
    <unit meter="1" name="meters"/>
    <up_axis>Z_UP</up_axis>
  </asset>

  <library_materials>
    <material id="ID9" name="ID9">
      <instance_effect url="#ID9-fx"/>
    </material>
    <material id="ID10" name="ID10">
      <instance_effect url="#ID10-fx"/>
    </material>
  </library_materials>

  <library_effects>
    <effect id="ID9-fx" name="ID9">
      <profile_COMMON>
        <technique sid="COMMON">
          <lambert>
            <diffuse>
              <color sid="diffuse">0 0 0 1</color>
            </diffuse>
            <transparent opaque="A_ONE">
              <color sid="transparent">1 1 1 1</color>
            </transparent>
            <transparency>
              <float sid="transparency">1</float>
            </transparency>
          </lambert>
        </technique>
        <extra>
          <technique profile="OTHER">
            <double_sided>1</double_sided>
          </technique>
        </extra>
      </profile_COMMON>
    </effect>
    <effect id="ID10-fx" name="ID10">
      <profile_COMMON>
        <technique sid="COMMON">
          <lambert>
            <diffuse>
              <color sid="diffuse">1 1 1 1</color>
            </diffuse>
            <transparent opaque="A_ONE">
              <color sid="transparent">1 1 1 1</color>
            </transparent>
            <transparency>
              <float sid="transparency">1</float>
            </transparency>
          </lambert>
        </technique>
        <extra>
          <technique profile="OTHER">
            <double_sided>1</double_sided>
          </technique>
        </extra>
      </profile_COMMON>
    </effect>
  </library_effects>

  <library_geometries>
    <geometry id="ID3">
      <mesh>
        <source id="ID4">
          <float_array count="1248" id="ID5">-0.056 1.40443e-17 0 -0.056 -0.05 0 -0.04 -0.04 0 -0.053 0.05 0 -0.04 0.04 0 0.04 0.04 0 0.056 1.38778e-17 0 0.053 1.38778e-17 0 0.04 -0.04 0 -0.053 1.38778e-17 0 0.056 -0.05 0 0.053 0.05 0 -0.03 -0.00995 0 -0.03 -0.00995 0.0005 -0.03 -0.02 0.0005 -0.03 -0.02 0 0.053 0.05 0 0.056 0.05 0 0.056 0.05 -0.002 -0.053 0.05 0 -0.0559795 0.05 0.000246892 -0.056 0.05 0 0.0541318 0.05 0.0014541 0.0543761 0.05 0.00149488 0.0548682 0.05 0.0014541 0.0546239 0.05 0.00149488 -0.0531808 0.05 0.000713921 -0.0530813 0.05 0.000487049 -0.0558192 0.05 0.000713921 0.0551025 0.05 0.00137366 0.0538975 0.05 0.00137366 -0.0530205 0.05 0.000246892 -0.0559187 0.05 0.000487049 -0.0556837 0.05 0.000921319 0.0553204 0.05 0.00125575 0.0536796 0.05 0.00125575 -0.0534841 0.05 0.00110359 -0.0533163 0.05 0.000921319 -0.0555159 0.05 0.00110359 0.0534841 0.05 0.00110359 0.0555159 0.05 0.00110359 -0.0553204 0.05 0.00125575 -0.0536796 0.05 0.00125575 0.0556837 0.05 0.000921319 0.0533163 0.05 0.000921319 0.0558192 0.05 0.000713921 0.0559187 0.05 0.000487049 0.0531808 0.05 0.000713921 0.0559795 0.05 0.000246892 0.0530813 0.05 0.000487049 0.0530205 0.05 0.000246892 -0.056 0.05 -0.002 -0.0551025 0.05 0.00137366 -0.0541318 0.05 0.0014541 -0.0538975 0.05 0.00137366 -0.0548682 0.05 0.0014541 -0.0546239 0.05 0.00149488 -0.0543761 0.05 0.00149488 0.056 -0.05 -0.002 -0.056 -0.05 0 -0.056 -0.05 -0.002 0.056 -0.05 0 -0.056 0.05 -0.002 0.056 0.05 -0.002 0.056 -0.05 -0.002 -0.056 -0.05 -0.002 0.03 -0.03 0 0.02 -0.03 0.0005 0.03 -0.03 0.0005 0.02 -0.03 0 0.02 -0.01 0 0.02 -0.01 0.0005 0.02 -0.03 0.0005 0.02 -0.03 0 0.03 -0.01 0 0.03 -0.01 0.0005 0.02 -0.01 0.0005 0.02 -0.01 0 -0.04 0.04 0 -0.04 -0.04 0.0005 -0.04 0.04 0.0005 -0.04 -0.04 0 0.04 -0.04 0 0.04 -0.04 0.0005 -0.04 -0.04 0.0005 -0.04 -0.04 0 0.04 0.04 0 0.04 0.04 0.0005 0.04 -0.04 0.0005 0.04 -0.04 0 -0.03 0.03 0 -0.03 0.03 0.0005 -0.03 0.02 0.0005 -0.03 0.02 0 -0.01 0.03 0 -0.01 0.03 0.0005 -0.03 0.03 0.0005 -0.03 0.03 0 -0.01 0.03 0 -0.01 0.01 0.0005 -0.01 0.03 0.0005 -0.01 0.01 0 -3.55271e-18 0.01 0 7.10543e-18 0.01 0.0005 -0.01 0.01 0.0005 -0.01 0.01 0 -3.46945e-18 0.03 0 -3.46945e-18 0.03 0.0005 7.10543e-18 0.01 0.0005 -3.55271e-18 0.01 0 0.02 0.03 0 0.02 0.03 0.0005 -3.46945e-18 0.03 0.0005 -3.46945e-18 0.03 0 0.02 0.03 0 0.02 0.02 0.0005 0.02 0.03 0.0005 0.02 0.02 0 0.03 0.02 0 0.03 0.02 0.0005 0.02 0.02 0.0005 0.02 0.02 0 0.03 0.02 0 0.03 0.01 0.0005 0.03 0.02 0.0005 0.03 0.01 0 0.03 0.01 0 0.01 0.01 0.0005 0.03 0.01 0.0005 0.01 0.01 0 0.01 0.01 0 0.01 1.77636e-17 0.0005 0.01 0.01 0.0005 0.01 1.77636e-17 0 0.01 1.77636e-17 0 7.10543e-18 1.73472e-17 0.0005 0.01 1.77636e-17 0.0005 7.10543e-18 1.73472e-17 0 7.10543e-18 1.73472e-17 0 -3.46945e-18 -0.01 0.0005 7.10543e-18 1.73472e-17 0.0005 -3.46945e-18 -0.01 0 0.01 -0.01 0 0.01 -0.01 0.0005 -3.46945e-18 -0.01 0.0005 -3.46945e-18 -0.01 0 0.01 -0.01 0 0.01 -0.02 0.0005 0.01 -0.01 0.0005 0.01 -0.02 0 0.01 -0.02 0 7.10543e-18 -0.02 0.0005 0.01 -0.02 0.0005 7.10543e-18 -0.02 0 7.10543e-18 -0.02 0 -3.46945e-18 -0.03 0.0005 7.10543e-18 -0.02 0.0005 -3.46945e-18 -0.03 0 -3.46945e-18 -0.03 0 -0.01 -0.03 0.0005 -3.46945e-18 -0.03 0.0005 -0.01 -0.03 0 -0.01 -0.01 0 -0.01 -0.01 0.0005 -0.01 -0.03 0.0005 -0.01 -0.03 0 -0.01 -0.01 0 -0.02 -0.01 0.0005 -0.01 -0.01 0.0005 -0.02 -0.01 0 -0.02 -0.01 0 -0.02 -0.02 0.0005 -0.02 -0.01 0.0005 -0.02 -0.02 0 -0.02 -0.02 0 -0.03 -0.02 0.0005 -0.02 -0.02 0.0005 -0.03 -0.02 0 -0.03 0.01 0 -0.03 0 0.0005 -0.03 0 0 -0.03 0.01 0.0005 -0.02 0.01 0 -0.02 0.01 0.0005 -0.03 0.01 0.0005 -0.03 0.01 0 -0.02 0.02 0 -0.02 0.02 0.0005 -0.02 0.01 0.0005 -0.02 0.01 0 0.04 0.04 0 -0.04 0.04 0.0005 0.04 0.04 0.0005 -0.04 0.04 0 -0.02 0.02 0 -0.03 0.02 0.0005 -0.02 0.02 0.0005 -0.03 0.02 0 0.03 -0.01 0 0.03 -0.03 0.0005 0.03 -0.01 0.0005 0.03 -0.03 0 0.04 -0.04 0.0005 0.04 0.04 0.0005 0.03 0.01 0.0005 0.03 -0.01 0.0005 0.03 -0.03 0.0005 0.02 -0.03 0.0005 -3.46945e-18 -0.01 0.0005 0.01 -0.01 0.0005 7.10543e-18 1.73472e-17 0.0005 -3.46945e-18 -0.03 0.0005 -0.03 0.03 0.0005 -0.01 0.03 0.0005 -0.04 0.04 0.0005 -3.46945e-18 0.03 0.0005 0.02 0.03 0.0005 0.02 0.02 0.0005 0.03 0.02 0.0005 -0.03 -0.02 0.0005 -0.03 -0.00995 0.0005 -0.04 -0.04 0.0005 0.02 -0.01 0.0005 0.01 1.77636e-17 0.0005 -0.03 0.02 0.0005 -0.02 -0.02 0.0005 -0.01 -0.01 0.0005 -0.02 -0.01 0.0005 -0.01 0.01 0.0005 7.10543e-18 0.01 0.0005 0.01 0.01 0.0005 0.01 -0.02 0.0005 7.10543e-18 -0.02 0.0005 -0.01 -0.03 0.0005 -0.03 0 0.0005 -0.02005 -0.00995 0.0005 -0.02005 0 0.0005 -0.03 0.01 0.0005 -0.02 0.01 0.0005 -0.02 0.02 0.0005 0.02 -0.01 0 0.03 -0.03 0 0.03 -0.01 0 0.02 -0.03 0 -0.03 -0.02 0 -0.02 -0.02 0 -0.03 -0.00995 0 -3.46945e-18 0.03 0 0.02 0.02 0 0.02 0.03 0 -0.03 0 0 -0.02005 -1.66533e-19 0 -0.03 0.01 0 0.01 -0.02 0 -3.46945e-18 -0.01 0 7.10543e-18 -0.02 0 -0.02 -0.01 0 -0.02005 -0.00995 0 -0.02 0.01 0 -0.01 -0.01 0 -0.01 -0.03 0 -3.46945e-18 -0.03 0 0.01 -0.01 0 7.10543e-18 1.73472e-17 0 0.01 0.01 0 -3.55271e-18 0.01 0 -0.01 0.01 0 0.01 1.77636e-17 0 0.03 0.01 0 0.03 0.02 0 -0.01 0.03 0 -0.03 0.03 0 -0.02 0.02 0 -0.03 0.02 0 -0.02005 -0.00995 0 -0.03 -0.00995 0.0005 -0.03 -0.00995 0 -0.02005 -0.00995 0.0005 -0.02005 0 0.0005 -0.02005 -0.00995 0.0005 -0.02005 -0.00995 0 -0.02005 -1.66533e-19 0 -0.02005 0 0.0005 -0.02005 -1.66533e-19 0 -0.03 0 0 -0.03 0 0.0005 0.056 -0.05 -0.002 0.056 1.38778e-17 0 0.056 -0.05 0 0.056 0.05 -0.002 0.056 0.05 0 -0.056 1.40443e-17 0 -0.056 0.05 0 -0.056 0.05 -0.002 -0.056 -0.05 -0.002 -0.056 -0.05 0 -0.0546239 0.05 0.00149488 -0.0546239 1.38778e-17 0.00149488 -0.0543761 1.38778e-17 0.00149488 -0.0548682 0.05 0.0014541 -0.0548682 1.38778e-17 0.0014541 -0.0551025 1.38778e-17 0.00137366 -0.0551025 0.05 0.00137366 -0.0553204 0.05 0.00125575 -0.0553204 1.38778e-17 0.00125575 -0.0555159 0.05 0.00110359 -0.0555159 1.38778e-17 0.00110359 -0.0556837 1.38778e-17 0.000921319 -0.0556837 0.05 0.000921319 -0.0558192 0.05 0.000713921 -0.0558192 1.38778e-17 0.000713921 -0.0559187 0.05 0.000487049 -0.0559187 1.38778e-17 0.000487049 -0.0559795 1.38778e-17 0.000246892 -0.0559795 0.05 0.000246892 -0.056 0.05 0 -0.056 1.40443e-17 0 -0.0543761 0.05 0.00149488 -0.0541318 1.38778e-17 0.0014541 -0.0541318 0.05 0.0014541 -0.0538975 1.38778e-17 0.00137366 -0.0538975 0.05 0.00137366 -0.0536796 0.05 0.00125575 -0.0536796 1.38778e-17 0.00125575 -0.0534841 1.38778e-17 0.00110359 -0.0534841 0.05 0.00110359 -0.0533163 1.38778e-17 0.000921319 -0.0533163 0.05 0.000921319 -0.0531808 0.05 0.000713921 -0.0531808 1.38778e-17 0.000713921 -0.0530813 1.38778e-17 0.000487049 -0.0530813 0.05 0.000487049 -0.0530205 1.38778e-17 0.000246892 -0.0530205 0.05 0.000246892 -0.053 1.38778e-17 0 -0.053 0.05 0 -0.0530813 1.38778e-17 0.000487049 -0.0559187 1.38778e-17 0.000487049 -0.0559795 1.38778e-17 0.000246892 -0.0541318 1.38778e-17 0.0014541 -0.0543761 1.38778e-17 0.00149488 -0.0548682 1.38778e-17 0.0014541 -0.0546239 1.38778e-17 0.00149488 -0.0551025 1.38778e-17 0.00137366 -0.0538975 1.38778e-17 0.00137366 -0.0553204 1.38778e-17 0.00125575 -0.0536796 1.38778e-17 0.00125575 -0.0534841 1.38778e-17 0.00110359 -0.0555159 1.38778e-17 0.00110359 -0.0556837 1.38778e-17 0.000921319 -0.0533163 1.38778e-17 0.000921319 -0.0558192 1.38778e-17 0.000713921 -0.0531808 1.38778e-17 0.000713921 -0.0530205 1.38778e-17 0.000246892 -0.056 1.40443e-17 0 -0.053 1.38778e-17 0 0.0543761 0.05 0.00149488 0.0543761 1.38778e-17 0.00149488 0.0546239 1.38778e-17 0.00149488 0.0541318 0.05 0.0014541 0.0541318 1.38778e-17 0.0014541 0.0538975 1.38778e-17 0.00137366 0.0538975 0.05 0.00137366 0.0536796 0.05 0.00125575 0.0536796 1.38778e-17 0.00125575 0.0534841 0.05 0.00110359 0.0534841 1.38778e-17 0.00110359 0.0533163 1.38778e-17 0.000921319 0.0533163 0.05 0.000921319 0.0531808 0.05 0.000713921 0.0531808 1.38778e-17 0.000713921 0.0530813 0.05 0.000487049 0.0530813 1.38778e-17 0.000487049 0.0530205 1.38778e-17 0.000246892 0.0530205 0.05 0.000246892 0.053 0.05 0 0.053 1.38778e-17 0 0.0546239 0.05 0.00149488 0.0548682 1.38778e-17 0.0014541 0.0548682 0.05 0.0014541 0.0551025 1.38778e-17 0.00137366 0.0551025 0.05 0.00137366 0.0553204 0.05 0.00125575 0.0553204 1.38778e-17 0.00125575 0.0555159 1.38778e-17 0.00110359 0.0555159 0.05 0.00110359 0.0556837 1.38778e-17 0.000921319 0.0556837 0.05 0.000921319 0.0558192 0.05 0.000713921 0.0558192 1.38778e-17 0.000713921 0.0559187 1.38778e-17 0.000487049 0.0559187 0.05 0.000487049 0.0559795 1.38778e-17 0.000246892 0.0559795 0.05 0.000246892 0.056 1.38778e-17 0 0.056 0.05 0 0.0548682 1.38778e-17 0.0014541 0.0546239 1.38778e-17 0.00149488 0.0541318 1.38778e-17 0.0014541 0.0559187 1.38778e-17 0.000487049 0.0558192 1.38778e-17 0.000713921 0.0530813 1.38778e-17 0.000487049 0.053 1.38778e-17 0 0.0559795 1.38778e-17 0.000246892 0.0530205 1.38778e-17 0.000246892 0.0534841 1.38778e-17 0.00110359 0.0555159 1.38778e-17 0.00110359 0.0553204 1.38778e-17 0.00125575 0.0533163 1.38778e-17 0.000921319 0.0531808 1.38778e-17 0.000713921 0.0556837 1.38778e-17 0.000921319 0.0543761 1.38778e-17 0.00149488 0.0551025 1.38778e-17 0.00137366 0.0538975 1.38778e-17 0.00137366 0.0536796 1.38778e-17 0.00125575 0.056 1.38778e-17 0</float_array>
          <technique_common>
            <accessor count="416" source="#ID5" stride="3">
              <param name="X" type="float"/>
              <param name="Y" type="float"/>
              <param name="Z" type="float"/>
            </accessor>
          </technique_common>
        </source>
        <source id="ID6">
          <float_array count="1248" id="ID7">0 0 1 0 0 1 0 0 1 0 0 1 0 0 1 0 0 1 0 0 1 0 0 1 0 0 1 0 0 1 0 0 1 0 0 1 1 0 0 1 0 0 1 0 0 1 0 0 0 1 0 0 1 0 0 1 0 0 1 0 0 1 0 0 1 0 0 1 0 0 1 0 0 1 0 0 1 0 0 1 0 0 1 0 0 1 0 0 1 0 0 1 0 0 1 0 0 1 0 0 1 0 0 1 0 0 1 0 0 1 0 0 1 0 0 1 0 0 1 0 0 1 0 0 1 0 0 1 0 0 1 0 0 1 0 0 1 0 0 1 0 0 1 0 0 1 0 0 1 0 0 1 0 0 1 0 0 1 0 0 1 0 0 1 0 0 1 0 0 1 0 0 1 0 -0 -1 -0 -0 -1 -0 -0 -1 -0 -0 -1 -0 -0 -0 -1 -0 -0 -1 -0 -0 -1 -0 -0 -1 0 1 0 0 1 0 0 1 0 0 1 0 1 0 0 1 0 0 1 0 0 1 0 0 -0 -1 -0 -0 -1 -0 -0 -1 -0 -0 -1 -0 -1 0 0 -1 0 0 -1 0 0 -1 0 0 -0 -1 -0 -0 -1 -0 -0 -1 -0 -0 -1 -0 1 0 0 1 0 0 1 0 0 1 0 0 1 0 0 1 0 0 1 0 0 1 0 0 -0 -1 -0 -0 -1 -0 -0 -1 -0 -0 -1 -0 -1 0 0 -1 0 0 -1 0 0 -1 0 0 -0 -1 -0 -0 -1 -0 -0 -1 -0 -0 -1 -0 1 0 0 1 0 0 1 0 0 1 0 0 -0 -1 -0 -0 -1 -0 -0 -1 -0 -0 -1 -0 -1 0 0 -1 0 0 -1 0 0 -1 0 0 -0 -1 -0 -0 -1 -0 -0 -1 -0 -0 -1 -0 -1 0 0 -1 0 0 -1 0 0 -1 0 0 0 1 0 0 1 0 0 1 0 0 1 0 -1 0 0 -1 0 0 -1 0 0 -1 0 0 0 1 0 0 1 0 0 1 0 0 1 0 -1 0 0 -1 0 0 -1 0 0 -1 0 0 -0 -1 -0 -0 -1 -0 -0 -1 -0 -0 -1 -0 -1 0 0 -1 0 0 -1 0 0 -1 0 0 0 1 0 0 1 0 0 1 0 0 1 0 -1 0 0 -1 0 0 -1 0 0 -1 0 0 0 1 0 0 1 0 0 1 0 0 1 0 1 0 0 1 0 0 1 0 0 1 0 0 0 1 0 0 1 0 0 1 0 0 1 0 -1 0 0 -1 0 0 -1 0 0 -1 0 0 0 1 0 0 1 0 0 1 0 0 1 0 1 0 0 1 0 0 1 0 0 1 0 0 -0 -1 -0 -0 -1 -0 -0 -1 -0 -0 -1 -0 1 0 0 1 0 0 1 0 0 1 0 0 0 1 0 0 1 0 0 1 0 0 1 0 0 1 0 0 1 0 0 1 0 0 1 0 -1 0 0 -1 0 0 -1 0 0 -1 0 0 0 0 1 0 0 1 0 0 1 0 0 1 0 0 1 0 0 1 0 0 1 0 0 1 0 0 1 0 0 1 0 0 1 0 0 1 0 0 1 0 0 1 0 0 1 0 0 1 0 0 1 0 0 1 0 0 1 0 0 1 0 0 1 0 0 1 0 0 1 0 0 1 0 0 1 0 0 1 0 0 1 0 0 1 0 0 1 0 0 1 0 0 1 0 0 1 0 0 1 0 0 1 0 0 1 0 0 1 0 0 1 0 0 1 0 0 1 0 0 1 0 0 1 0 0 1 0 0 1 0 0 1 0 0 1 0 0 1 0 0 1 0 0 1 0 0 1 0 0 1 0 0 1 0 0 1 0 0 1 0 0 1 0 0 1 0 0 1 0 0 1 0 0 1 0 0 1 0 0 1 0 0 1 0 0 1 0 0 1 0 0 1 0 0 1 0 0 1 0 0 1 0 0 1 0 0 1 0 0 1 0 0 1 0 0 1 -0 -1 -0 -0 -1 -0 -0 -1 -0 -0 -1 -0 1 0 0 1 0 0 1 0 0 1 0 0 0 1 0 0 1 0 0 1 0 0 1 0 1 0 0 1 0 0 1 0 0 1 0 0 1 0 0 -1 -0 -0 -1 -0 -0 -1 -0 -0 -1 -0 -0 -1 -0 -0 -0.0825793 0 0.996584 -0.0825793 0 0.996584 0.0825795 0 0.996584 -0.245486 0 0.9694 -0.245486 0 0.9694 -0.401695 0 0.915773 -0.401695 0 0.915773 -0.546948 0 0.837166 -0.546948 0 0.837166 -0.677282 0 0.735724 -0.677282 0 0.735724 -0.789141 0 0.614213 -0.789141 0 0.614213 -0.879474 0 0.475947 -0.879474 0 0.475947 -0.945817 0 0.3247 -0.945817 0 0.3247 -0.986361 0 0.164595 -0.986361 0 0.164595 -1 0 4.37114e-08 -1 0 4.37114e-08 0.0825795 0 0.996584 0.245486 0 0.9694 0.245486 0 0.9694 0.401695 0 0.915773 0.401695 0 0.915773 0.546948 0 0.837166 0.546948 0 0.837166 0.677281 0 0.735724 0.677281 0 0.735724 0.789141 0 0.614213 0.789141 0 0.614213 0.879474 0 0.475947 0.879474 0 0.475947 0.945817 0 0.3247 0.945817 0 0.3247 0.986361 0 0.164595 0.986361 0 0.164595 1 0 -1.19249e-08 1 0 -1.19249e-08 -0 -1 -0 -0 -1 -0 -0 -1 -0 -0 -1 -0 -0 -1 -0 -0 -1 -0 -0 -1 -0 -0 -1 -0 -0 -1 -0 -0 -1 -0 -0 -1 -0 -0 -1 -0 -0 -1 -0 -0 -1 -0 -0 -1 -0 -0 -1 -0 -0 -1 -0 -0 -1 -0 -0 -1 -0 -0 -1 -0 -0.0825793 0 0.996584 -0.0825793 0 0.996584 0.0825795 0 0.996584 -0.245486 0 0.9694 -0.245486 0 0.9694 -0.401695 0 0.915773 -0.401695 0 0.915773 -0.546948 0 0.837166 -0.546948 0 0.837166 -0.677282 0 0.735724 -0.677282 0 0.735724 -0.789141 0 0.614213 -0.789141 0 0.614213 -0.879474 0 0.475947 -0.879474 0 0.475947 -0.945817 0 0.3247 -0.945817 0 0.3247 -0.986361 0 0.164595 -0.986361 0 0.164595 -1 0 4.37114e-08 -1 0 4.37114e-08 0.0825795 0 0.996584 0.245486 0 0.9694 0.245486 0 0.9694 0.401695 0 0.915773 0.401695 0 0.915773 0.546948 0 0.837166 0.546948 0 0.837166 0.677281 0 0.735724 0.677281 0 0.735724 0.789141 0 0.614213 0.789141 0 0.614213 0.879474 0 0.475947 0.879474 0 0.475947 0.945817 0 0.3247 0.945817 0 0.3247 0.986361 0 0.164595 0.986361 0 0.164595 1 0 -1.19249e-08 1 0 -1.19249e-08 -0 -1 -0 -0 -1 -0 -0 -1 -0 -0 -1 -0 -0 -1 -0 -0 -1 -0 -0 -1 -0 -0 -1 -0 -0 -1 -0 -0 -1 -0 -0 -1 -0 -0 -1 -0 -0 -1 -0 -0 -1 -0 -0 -1 -0 -0 -1 -0 -0 -1 -0 -0 -1 -0 -0 -1 -0 -0 -1 -0</float_array>
          <technique_common>
            <accessor count="416" source="#ID7" stride="3">
              <param name="X" type="float"/>
              <param name="Y" type="float"/>
              <param name="Z" type="float"/>
            </accessor>
          </technique_common>
        </source>
        <vertices id="ID8">
          <input semantic="POSITION" source="#ID4"/>
          <input semantic="NORMAL" source="#ID6"/>
        </vertices>
        <triangles count="40" material="ID9">
          <input offset="0" semantic="VERTEX" source="#ID8"/>
          <p>202 203 204 202 205 206 202 206 207 208 209 210 207 211 202 212 213 214 215 203 214 216 217 218 219 220 221 209 222 223 214 224 212 214 213 215 202 204 205 225 226 227 213 228 229 213 229 215 204 230 223 203 215 216 205 204 222 216 218 203 203 218 204 222 204 223 209 231 222 222 231 207 210 209 223 231 232 211 231 211 207 202 211 221 221 211 233 233 219 221 226 225 233 233 225 219 234 221 220 234 214 221 235 236 234 235 234 220 224 214 237 214 234 237 224 237 238 224 238 239</p>
        </triangles>
        <triangles count="280" material="ID10">
          <input offset="0" semantic="VERTEX" source="#ID8"/>
          <p>0 1 2 3 4 5 6 7 8 3 9 4 9 0 2 1 10 2 5 8 7 2 4 9 3 5 11 7 11 5 2 10 8 6 8 10 12 13 14 14 15 12 16 17 18 19 16 18 20 19 21 22 23 24 23 25 24 26 27 28 29 30 22 22 24 29 31 32 27 33 26 28 30 34 35 34 30 29 36 37 38 39 35 40 34 40 35 37 33 38 36 41 42 39 40 43 44 43 45 43 44 39 46 47 45 44 45 47 46 48 49 49 47 46 50 48 17 48 50 49 50 17 16 19 18 51 52 42 41 19 51 21 53 54 55 42 52 54 55 56 53 57 53 56 55 54 52 36 38 41 32 28 27 37 26 33 19 20 31 20 32 31 58 59 60 58 61 59 62 63 64 64 65 62 66 67 68 67 66 69 70 71 72 72 73 70 74 75 76 76 77 74 78 79 80 79 78 81 82 83 84 84 85 82 86 87 88 88 89 86 90 91 92 92 93 90 94 95 96 96 97 94 98 99 100 99 98 101 102 103 104 104 105 102 106 107 108 108 109 106 110 111 112 112 113 110 114 115 116 115 114 117 118 119 120 120 121 118 122 123 124 123 122 125 126 127 128 127 126 129 130 131 132 131 130 133 134 135 136 135 134 137 138 139 140 139 138 141 142 143 144 144 145 142 146 147 148 147 146 149 150 151 152 151 150 153 154 155 156 155 154 157 158 159 160 159 158 161 162 163 164 164 165 162 166 167 168 167 166 169 170 171 172 171 170 173 174 175 176 175 174 177 178 179 180 178 181 179 182 183 184 184 185 182 186 187 188 188 189 186 190 191 192 191 190 193 194 195 196 195 194 197 198 199 200 199 198 201 240 241 242 241 240 243 244 245 246 247 248 249 250 251 252 253 254 255 246 256 257 252 251 258 245 256 246 257 256 251 255 259 260 251 256 259 260 261 255 262 254 253 259 255 254 259 254 263 264 247 265 266 259 263 267 264 265 268 248 264 268 269 248 267 265 263 248 247 264 270 271 272 263 265 266 266 251 259 273 272 271 266 270 272 251 266 258 266 272 258 274 275 276 274 277 275 278 279 280 278 280 281 282 283 284 284 285 282 286 287 288 289 290 287 289 287 286 291 292 293 294 295 291 291 293 294 296 297 298 297 299 300 299 297 296 301 300 302 299 302 300 303 304 301 301 302 303 304 305 306 305 304 303 307 306 308 305 308 306 309 310 307 307 308 309 310 311 312 311 310 309 313 312 314 311 314 312 315 316 313 313 314 315 296 298 317 318 319 317 317 298 318 319 320 321 320 319 318 322 321 323 320 323 321 324 325 322 322 323 324 325 326 327 326 325 324 328 327 329 326 329 327 330 331 328 328 329 330 331 332 333 332 331 330 332 334 333 333 334 335 336 337 338 339 340 341 341 340 342 339 343 344 343 339 341 345 346 344 344 343 345 347 346 348 345 348 346 347 349 350 349 347 348 350 349 351 352 351 337 351 352 350 353 336 338 336 352 337 354 355 353 353 338 354 356 357 358 357 359 360 359 357 356 361 360 362 359 362 360 363 364 361 361 362 363 364 365 366 365 364 363 367 366 368 365 368 366 369 370 367 367 368 369 370 371 372 371 370 369 373 372 374 371 374 372 375 376 373 373 374 375 356 358 377 378 379 377 377 358 378 379 380 381 380 379 378 382 381 383 380 383 381 384 385 382 382 383 384 385 386 387 386 385 384 388 387 389 386 389 387 390 391 388 388 389 390 391 392 393 392 391 390 392 394 393 393 394 395 396 397 398 399 400 401 402 403 404 405 406 407 408 409 410 411 398 397 412 413 414 413 412 396 413 396 398 405 407 414 407 412 414 406 405 408 400 410 409 410 406 408 399 401 404 400 409 401 402 415 403 399 404 403</p>
        </triangles>
      </mesh>
    </geometry>
  </library_geometries>

  <library_visual_scenes>
    <visual_scene id="ID1">
      <node id="ID2">
        <instance_geometry url="#ID3">
          <bind_material>
            <technique_common>
              <instance_material symbol="ID9" target="#ID9"/>
              <instance_material symbol="ID10" target="#ID10"/>
            </technique_common>
          </bind_material>
        </instance_geometry>
      </node>
    </visual_scene>
  </library_visual_scenes>

  <scene>
    <instance_visual_scene url="#ID1"/>
  </scene>

  <library_nodes/>

</COLLADA>
